<svg xmlns="http://www.w3.org/2000/svg" xmlns:svg="http://www.w3.org/2000/svg" id="svg8" width="208" height="268" version="1.1" viewBox="0 0 208.619 268.1"><metadata id="metadata5"/><g id="layer1" transform="translate(-0.7817883,-1.1645179)"><path style="fill:#a4cf66;fill-opacity:1;stroke:#a4cf66;stroke-width:.324328px;stroke-linecap:round;stroke-linejoin:miter;stroke-opacity:1" id="path75" d="m 47.796161,84.989774 c -8.36331,-3.113642 -15.609651,-9.140973 -20.194483,-16.79728 -1.626268,-2.71574 -2.93372,-5.651533 -3.557091,-8.754983 -0.62337,-3.10345 -0.539245,-6.386703 0.537357,-9.363433 0.962231,-2.660501 2.733448,-5.048932 5.095801,-6.605673 2.648027,-1.744995 5.943176,-2.384511 9.09812,-2.062973 3.154944,0.321539 6.172983,1.560866 8.831563,3.289741 4.7035,3.058686 8.299814,7.603728 10.946542,12.550778 2.741552,5.124288 4.541861,10.750254 5.284537,16.514182"/><path style="fill:none;stroke:#a4cf66;stroke-width:.324328px;stroke-linecap:round;stroke-linejoin:miter;stroke-opacity:1" id="path79" d="m 99.226038,64.889657 c -4.781347,-0.01141 -9.56372,0.463661 -14.249379,1.415503 -7.342136,1.491478 -14.416324,4.146121 -21.138152,7.454973 -5.891266,2.900003 -11.618353,6.377287 -16.042346,11.229639 -1.827382,2.00432 -3.415024,4.227021 -4.718336,6.605676"/><path style="fill:none;stroke:#a4cf66;stroke-width:.324839;stroke-linecap:round;stroke-linejoin:miter;stroke-miterlimit:4;stroke-dasharray:none;stroke-opacity:1" id="path83" d="M 43.077825,91.595448 C 48.48483,87.795532 54.166501,84.38653 60.06384,81.403839 c 6.15939,-3.115228 12.625815,-5.786168 19.43955,-6.888774 2.58737,-0.418691 5.21175,-0.608405 7.832438,-0.566199"/><path style="fill:none;stroke:#a4cf66;stroke-width:.324839;stroke-linecap:round;stroke-linejoin:miter;stroke-miterlimit:4;stroke-dasharray:none;stroke-opacity:1" id="path87" d="m 87.335828,73.948863 c 2.889681,-3.019735 6.989295,-6.039471 11.89021,-9.059206"/><path style="fill:none;fill-opacity:1;fill-rule:nonzero;stroke:#e156d7;stroke-width:.324328px;stroke-linecap:round;stroke-linejoin:miter;stroke-opacity:1" id="path89" d="m 19.486138,176.24242 c 0.461331,-11.79314 3.098074,-23.49771 7.738072,-34.3495 3.665036,-8.5716 8.574037,-16.61092 14.532481,-23.78042 8.925751,-10.73992 20.218741,-19.501717 32.839626,-25.479015"/><path style="fill:none;stroke:#e156d7;stroke-width:.324328px;stroke-linecap:round;stroke-linejoin:miter;stroke-opacity:1" id="path93" d="m 19.486138,176.24242 c -2.342827,-6.70722 -3.436532,-13.84846 -3.20847,-20.94942 0.45091,-14.03957 6.012402,-27.49812 13.400077,-39.4453 3.59452,-5.81298 7.652899,-11.36923 12.456411,-16.231077 4.451021,-4.505073 9.515044,-8.384506 14.909948,-11.701475 5.89521,-3.624574 12.21835,-6.595102 18.873347,-8.493011 2.541132,-0.724694 5.127044,-1.292334 7.738075,-1.698602"/><path style="fill:none;stroke:#e156d7;stroke-width:.324328px;stroke-linecap:round;stroke-linejoin:round;stroke-opacity:1" id="path99" d="m 74.596317,92.633485 c 1.205075,-5.574869 4.863987,-10.331795 9.059206,-14.90995"/><path style="fill:#e156d7;fill-opacity:1;stroke:#e156d7;stroke-width:.324328px;stroke-linecap:butt;stroke-linejoin:miter;stroke-opacity:1" id="path101" d="M 30.055214,115.47024 C 21.210241,113.92808 12.964483,109.1578 7.2184591,102.25889 3.9025113,98.277626 1.3620647,93.460563 0.99025536,88.292611 0.85145085,86.363302 1.0189552,84.404282 1.572174,82.550785 2.1253928,80.697289 3.0702507,78.9513 4.3874579,77.534802 c 2.482371,-2.669491 6.1712551,-4.018994 9.8141411,-4.152137 3.106024,-0.113521 6.214881,0.594892 9.056857,1.853241 2.841977,1.258348 5.425172,3.056286 7.740426,5.129899 5.564676,4.983897 9.618869,11.632694 11.501293,18.861894"/><path style="fill:none;stroke:#40c5f0;stroke-width:.324839;stroke-linecap:round;stroke-linejoin:miter;stroke-miterlimit:4;stroke-dasharray:none;stroke-opacity:1" id="path105" d="m 65.914576,69.230527 c 4.605309,-1.888089 9.337911,-3.465622 14.155012,-4.718336 5.065379,-1.31728 10.245244,-2.277647 15.476148,-2.453535 2.933803,-0.09865 5.875884,0.05011 8.784774,0.444193"/><path style="fill:none;stroke:#40c5f0;stroke-width:.324328px;stroke-linecap:round;stroke-linejoin:miter;stroke-opacity:1" id="path109" d="m 64.349432,65.789495 c 1.746801,-1.211965 3.598885,-2.272131 5.528549,-3.16464 5.392388,-2.49409 11.299782,-3.644665 17.174747,-4.529603 5.746513,-0.86559 11.578687,-1.498463 17.363482,-0.943667 2.87885,0.276099 5.72941,0.846212 8.493,1.698602"/><path style="fill:none;stroke:#40c5f0;stroke-width:.324839;stroke-linecap:round;stroke-linejoin:miter;stroke-miterlimit:4;stroke-dasharray:none;stroke-opacity:1" id="path113" d="m 64.349432,65.789495 c 0.324531,1.675399 0.897441,2.46467 1.565144,3.441032"/><path style="fill:none;stroke:#40c5f0;stroke-width:.324328px;stroke-linecap:round;stroke-linejoin:miter;stroke-opacity:1" id="path115" d="m 104.33051,62.502849 c 2.59906,-1.868819 5.64714,-2.6151 8.5787,-3.652662"/><path style="fill:#40c5f0;fill-opacity:1;stroke:#40c5f0;stroke-width:.324328px;stroke-linecap:butt;stroke-linejoin:miter;stroke-opacity:1" id="path117" d="M 69.594881,62.624855 C 63.684132,57.687333 59.33925,50.902633 57.327202,43.468405 55.57734,37.002914 55.633384,29.867956 58.55397,23.840123 c 1.060605,-2.188996 2.490887,-4.2127 4.297574,-5.841341 1.806687,-1.62864 3.997129,-2.853732 6.365868,-3.406601 2.619458,-0.611388 5.408879,-0.384871 7.944099,0.514025 2.53522,0.898896 4.817569,2.454888 6.682748,4.393047 3.523664,3.661537 5.498552,8.556886 6.700038,13.494446 1.547938,6.36132 1.909745,13.210757 -0.377465,19.345182 -0.764605,2.050714 -1.81603,3.994255 -3.114104,5.756371"/><path style="fill:none;stroke:#aa81b9;stroke-width:.324328px;stroke-linecap:round;stroke-linejoin:miter;stroke-opacity:1" id="path121" d="m 92.054167,54.509317 c 4.899757,-0.347221 9.826313,-0.315643 14.721213,0.09436 4.34794,0.364188 8.67085,1.026825 12.92824,1.981702"/><path style="fill:none;stroke:#aa81b9;stroke-width:.324839;stroke-linecap:round;stroke-linejoin:miter;stroke-miterlimit:4;stroke-dasharray:none;stroke-opacity:1" id="path125" d="m 92.997832,50.734645 c 3.04206,-0.71976 6.134922,-1.224716 9.247938,-1.509866 5.96819,-0.546682 11.99703,-0.283339 17.92969,0.566199 2.95075,0.422537 5.88079,0.989643 8.7761,1.698602"/><path style="fill:none;stroke:#aa81b9;stroke-width:.324839;stroke-linecap:round;stroke-linejoin:miter;stroke-miterlimit:4;stroke-dasharray:none;stroke-opacity:1" id="path129" d="m 92.997832,50.734645 c -0.571302,1.450784 -0.875612,2.701323 -0.943668,3.774672"/><path style="fill:none;stroke:#aa81b9;stroke-width:.324839;stroke-linecap:round;stroke-linejoin:round;stroke-miterlimit:4;stroke-dasharray:none;stroke-opacity:1" id="path131" d="m 128.95156,51.48958 c 0.18923,1.57179 0.54371,2.81309 0.8493,4.152137 -5.01186,-0.291908 -7.37962,0.390323 -10.09724,0.943665"/><path style="fill:#aa81b9;fill-opacity:1;stroke:#aa81b9;stroke-width:.324328px;stroke-linecap:butt;stroke-linejoin:miter;stroke-opacity:1" id="path133" d="m 103.18944,49.036043 c -1.7698,-1.859701 -3.241177,-4.002796 -4.340868,-6.322572 -2.201317,-4.643635 -2.870582,-9.867495 -3.019738,-15.004313 -0.138203,-4.759602 0.160338,-9.607428 1.763929,-14.090888 1.60359,-4.4834594 4.639967,-8.5993862 8.899517,-10.7275624 2.86301,-1.4304295 6.19513,-1.90270905 9.34231,-1.3211374 4.57022,0.8445387 8.61155,3.9083414 10.94653,7.9268085 2.70608,4.6571283 3.16156,10.2838083 2.92538,15.6648793 -0.26622,6.065367 -1.36886,12.206309 -4.2465,17.552216 -1.38909,2.580561 -3.1785,4.945137 -5.28454,6.983137"/><path style="fill:none;stroke:#f28195;stroke-width:.324328px;stroke-linecap:round;stroke-linejoin:miter;stroke-opacity:1" id="path137" d="m 81.477547,88.632649 c 8.897916,-5.781666 18.780883,-10.043128 29.093133,-12.544742 8.75755,-2.124464 17.86629,-2.981721 26.8244,-2.001821 9.24112,1.010858 18.26244,3.987434 26.29058,8.674557"/><path style="fill:none;stroke:#f28195;stroke-width:.324839;stroke-linecap:round;stroke-linejoin:miter;stroke-miterlimit:4;stroke-dasharray:none;stroke-opacity:1" id="path141" d="m 81.477547,88.632649 c 4.734371,-7.738366 11.214178,-14.401997 18.817113,-19.350933 7.67733,-4.997362 16.45487,-8.230879 25.48986,-9.742195 2.8233,-0.472264 5.67865,-0.779832 8.5411,-0.800731 7.97715,-0.05824 15.80165,2.10351 23.35458,4.670917 3.41167,1.1597 6.79396,2.40581 10.14255,3.736731"/><path style="fill:none;stroke:#f28195;stroke-width:.324839;stroke-linecap:round;stroke-linejoin:miter;stroke-miterlimit:4;stroke-dasharray:none;stroke-opacity:1" id="path145" d="m 167.82275,67.146438 c -4.7017,7.760638 -3.79857,11.209869 -4.13709,15.614205"/><path style="fill:#f28195;fill-opacity:1;stroke:#f28195;stroke-width:.324328px;stroke-linecap:round;stroke-linejoin:miter;stroke-opacity:1" id="path147" d="m 134.72598,58.605336 c -1.81873,-5.075696 -2.68343,-10.491435 -2.53564,-15.881112 0.10873,-3.965184 0.76797,-7.934368 2.17758,-11.642133 1.4096,-3.707765 3.58497,-7.150618 6.49697,-9.844082 1.8772,-1.736326 4.06292,-3.158856 6.46541,-4.034519 2.40248,-0.875663 5.02544,-1.192596 7.54735,-0.76985 2.48201,0.416059 4.82725,1.543616 6.77028,3.143032 1.94303,1.599417 3.4879,3.661372 4.57337,5.931891 1.50364,3.14522 2.12731,6.670143 2.0772,10.155948 -0.0501,3.485805 -0.75741,6.939252 -1.81029,10.262624 -2.00979,6.343843 -5.29747,12.27994 -9.60874,17.349117"/><path style="fill:#f28195;fill-opacity:1;stroke:#f28195;stroke-width:.324839;stroke-linecap:round;stroke-linejoin:round;stroke-miterlimit:4;stroke-dasharray:none;stroke-opacity:1" id="path151" d="m 189.17552,103.04577 c 3.11275,2.67028 5.56027,6.0058 7.60691,9.74219 -0.56213,-3.79578 0.1375,-4.56333 -2.00181,-12.14438 -1.67343,0.21589 -3.24796,0.13512 -5.6051,2.40219 z"/><path style="fill:none;stroke:#fecb0e;stroke-width:.324328px;stroke-linecap:round;stroke-linejoin:bevel;stroke-opacity:1" id="path153" d="m 105.17114,83.574274 c 6.06193,-0.04986 12.12784,0.392448 18.11842,1.321134 12.20802,1.892541 24.20702,5.871395 34.53823,12.64514 7.77686,5.098962 14.50267,11.708032 20.19448,19.062092 8.35038,10.78904 14.55249,23.30513 17.55222,36.6143 2.71856,12.06168 2.78344,24.7141 0.18873,36.80302"/><path style="fill:none;stroke:#fecb0e;stroke-width:.324839;stroke-linecap:round;stroke-linejoin:round;stroke-miterlimit:4;stroke-dasharray:none;stroke-opacity:1" id="path157" d="m 105.17114,83.574274 c 3.66,-1.869563 7.52952,-3.328565 11.51275,-4.340872 17.21315,-4.374596 35.94415,-0.05085 50.95803,9.436671 5.11845,3.234429 9.87061,7.045711 14.15502,11.324012 11.00001,10.984335 18.8343,25.083515 22.45928,40.200235 2.45964,10.25705 2.99189,21.11107 0.37748,31.32977 -1.70578,6.66721 -4.73908,12.99197 -8.87048,18.49587"/><path style="fill:#fecb0e;fill-opacity:1;stroke:#fecb0e;stroke-width:.324328px;stroke-linecap:butt;stroke-linejoin:miter;stroke-opacity:1" id="path161" d="m 168.20814,88.893354 c -0.71177,-7.419678 0.89096,-15.044889 4.5296,-21.550159 1.78299,-3.187689 4.05403,-6.120729 6.8258,-8.499328 2.77176,-2.378598 6.05323,-4.193208 9.59401,-5.089485 3.17405,-0.803448 6.56593,-0.8545 9.70462,0.07759 3.13869,0.932087 6.00513,2.877856 7.84759,5.584418 1.58035,2.321518 2.37102,5.127587 2.50691,7.932669 0.13589,2.805081 -0.35996,5.614201 -1.18577,8.298411 -1.87211,6.085083 -5.47819,11.626176 -10.28386,15.802132 -4.80566,4.175956 -10.79572,6.97358 -17.0825,7.978287"/><path style="fill:none;stroke:#e156d7;stroke-width:.324328px;stroke-linecap:butt;stroke-linejoin:miter;stroke-opacity:1" id="path175" d="M 30.055214,115.47024 42.500174,99.227699"/><path style="fill:none;stroke:#174871;stroke-width:.324839;stroke-linecap:round;stroke-linejoin:miter;stroke-miterlimit:4;stroke-dasharray:none;stroke-opacity:1" id="path177" d="m 99.131672,174.16635 c 2.486708,3.96959 6.042748,7.26222 10.191618,9.43667 4.77299,2.50156 10.31822,3.50372 15.66487,2.83102"/><path style="fill:none;stroke:#174871;stroke-width:.324839;stroke-linecap:round;stroke-linejoin:miter;stroke-miterlimit:4;stroke-dasharray:none;stroke-opacity:1" id="path181" d="m 99.131672,174.16635 c -0.867257,1.68461 -1.324409,3.57853 -1.321134,5.47327 0.0037,2.14463 0.595946,4.27567 1.630364,6.15435 1.034418,1.87868 2.503898,3.50644 4.220368,4.7922 1.91514,1.43458 4.14939,2.45155 6.50062,2.89597 2.35123,0.44441 4.81679,0.3102 7.0882,-0.44244 3.30087,-1.09376 6.13989,-3.51731 7.73807,-6.60566"/><path style="fill:none;stroke:#174871;stroke-width:.324839;stroke-linecap:round;stroke-linejoin:miter;stroke-miterlimit:4;stroke-dasharray:none;stroke-opacity:1" id="path185" d="m 147.25871,191.3411 c 2.55913,2.94403 6.03274,5.08163 9.81414,6.03947 4.04654,1.025 8.42551,0.68816 12.26769,-0.94366"/><path style="fill:none;stroke:#174871;stroke-width:.324839;stroke-linecap:round;stroke-linejoin:miter;stroke-miterlimit:4;stroke-dasharray:none;stroke-opacity:1" id="path189" d="m 147.25871,191.3411 c -0.55035,1.8413 -0.48301,3.86145 0.18874,5.66201 0.65466,1.75477 1.86353,3.27785 3.34164,4.42806 1.47812,1.15021 3.2181,1.93829 5.02509,2.43081 1.98538,0.54114 4.08781,0.7323 6.11094,0.3561 2.02313,-0.37619 3.96286,-1.34444 5.33934,-2.87411 1.21018,-1.34487 1.95359,-3.10201 2.07608,-4.90706"/><path style="fill:none;stroke:#174871;stroke-width:.324839;stroke-linecap:round;stroke-linejoin:miter;stroke-miterlimit:4;stroke-dasharray:none;stroke-opacity:1" id="path193" d="m 103.66127,157.18034 c 3.06029,1.1469 6.02949,2.53674 8.87048,4.15213 4.14675,2.35785 8.05375,5.22915 11.13527,8.87048 2.03395,2.40346 3.68372,5.11264 5.09582,7.92681 2.25425,4.4925 3.93136,9.3341 4.34086,14.34374 0.43058,5.2676 -0.56453,10.61652 -2.64226,15.47615 -1.52981,3.5781 -3.64203,6.90643 -6.22822,9.81413"/><path style="fill:none;stroke:#174871;stroke-width:.324839;stroke-linecap:round;stroke-linejoin:miter;stroke-miterlimit:4;stroke-dasharray:none;stroke-opacity:1" id="path197" d="m 103.66127,157.18034 c 2.11916,-0.35632 4.29778,-0.35632 6.41694,0 5.01622,0.84344 9.5383,3.65299 13.21135,7.17187 5.08611,4.87263 8.72513,11.12262 11.13528,17.74095 1.54433,4.24076 2.61231,8.69824 2.64227,13.21134 0.0242,3.64437 -0.62975,7.27362 -1.69861,10.75781 -0.88263,2.87713 -2.09094,5.73401 -4.15214,7.92681 -1.84372,1.96143 -4.33221,3.30656 -6.98314,3.77466"/><path style="fill:none;fill-opacity:1;fill-rule:evenodd;stroke:#174871;stroke-width:.324328px;stroke-linecap:round;stroke-linejoin:miter;stroke-opacity:1" id="path201" d="m 141.21924,185.1129 c 1.81265,-2.39032 4.06292,-4.44771 6.60567,-6.03948 2.81827,-1.76425 5.98416,-2.95115 9.24794,-3.58593 3.41422,-0.66403 6.94425,-0.72822 10.38035,-0.18874"/><path style="fill:none;stroke:#174871;stroke-width:.324839;stroke-linecap:butt;stroke-linejoin:miter;stroke-miterlimit:4;stroke-dasharray:none;stroke-opacity:1" id="path205" d="m 141.21924,185.1129 c 0.24327,-1.78437 0.8226,-3.52235 1.69861,-5.09581 1.99031,-3.57493 5.51033,-6.20937 9.43667,-7.3606 5.07903,-1.48921 10.82723,-0.48328 15.09868,2.64226"/><path style="fill:none;stroke:#174871;stroke-width:.324839;stroke-linecap:round;stroke-linejoin:miter;stroke-miterlimit:4;stroke-dasharray:none;stroke-opacity:1" id="path209" d="m 109.51201,230.97513 c 3.38,1.71657 6.9245,3.10905 10.56908,4.15214 5.9355,1.69875 12.13662,2.4659 18.30715,2.2648"/><path style="fill:none;stroke:#174871;stroke-width:.324328px;stroke-linecap:round;stroke-linejoin:miter;stroke-opacity:1" id="path213" d="m 109.51201,230.97513 c -0.46321,1.80186 -0.32871,3.75207 0.37748,5.47328 1.0368,2.527 3.2198,4.43992 5.62626,5.73208 2.90388,1.55925 6.18524,2.33073 9.47241,2.57218 1.7433,0.12805 3.50762,0.11032 5.22399,-0.2207 1.71637,-0.33101 3.38807,-0.98528 4.77889,-2.0441 1.65457,-1.25961 2.87086,-3.08404 3.3972,-5.0958"/><path style="fill:none;stroke:#174871;stroke-width:.324839;stroke-linecap:round;stroke-linejoin:miter;stroke-miterlimit:4;stroke-dasharray:none;stroke-opacity:1" id="path217" d="m 90.638664,156.9916 c 1.792958,-2.10527 3.823023,-4.00845 6.039473,-5.662 5.501943,-4.10463 12.101143,-6.61717 18.873353,-7.73808 10.59984,-1.75445 21.66616,-0.13347 31.51848,4.15214 8.36036,3.63663 15.95535,9.24192 21.32689,16.60855 3.83166,5.25481 6.49356,11.3577 7.73808,17.74095"/><path style="fill:none;stroke:#174871;stroke-width:.324839;stroke-linecap:round;stroke-linejoin:miter;stroke-miterlimit:4;stroke-dasharray:none;stroke-opacity:1" id="path221" d="m 90.638664,156.9916 c 0.311094,-2.01253 0.883602,-3.9845 1.698603,-5.85074 1.418661,-3.24853 3.559276,-6.14911 6.03947,-8.68174 4.768603,-4.86942 10.834003,-8.42668 17.363483,-10.38033 7.92388,-2.37086 16.467,-2.3857 24.53535,-0.5662 6.46846,1.45871 12.65961,4.07455 18.30715,7.54933 6.00818,3.69667 11.49584,8.46757 15.09868,14.53248 5.03809,8.48094 5.96794,19.28151 2.45354,28.49876"/><path style="fill:none;stroke:#174871;stroke-width:.324839;stroke-linecap:round;stroke-linejoin:miter;stroke-miterlimit:4;stroke-dasharray:none;stroke-opacity:1" id="path229" d="m 87.996397,262.11616 c -5.315212,-4.03419 -9.881978,-9.05119 -13.40008,-14.72121 -5.971967,-9.62484 -8.827399,-20.96279 -9.436676,-32.27343 -0.588546,-10.92578 0.849113,-21.9189 3.774672,-32.46216 2.488013,-8.96641 6.045206,-17.62282 10.380343,-25.85649 4.820768,-9.15602 10.720873,-17.92844 18.684614,-24.53536 5.98085,-4.96187 13.05259,-8.60694 20.57195,-10.56907 7.43176,-1.93927 15.29907,-2.2298 22.83675,-0.75493 8.63198,1.68899 16.79801,5.70425 23.40295,11.51274 7.16555,6.3015 12.44996,14.66982 15.28742,23.78042 1.937,6.21938 2.75274,12.74226 3.01973,19.25082 0.37581,9.16143 -0.3225,18.36647 -2.07606,27.36636"/><path style="fill:none;stroke:#174871;stroke-width:.324839;stroke-linecap:round;stroke-linejoin:miter;stroke-miterlimit:4;stroke-dasharray:none;stroke-opacity:1" id="path233" d="m 181.04201,202.85385 c 2.76818,-6.03385 4.86143,-12.37704 6.2282,-18.87335 2.13942,-10.16877 2.48155,-20.77616 0.37748,-30.9523 -1.8919,-9.15003 -5.77802,-17.91362 -11.51275,-25.29029 -5.72535,-7.3646 -13.34488,-13.34008 -22.08182,-16.60855 -9.27997,-3.47162 -19.61428,-3.80147 -29.2537,-1.50986 -9.56791,2.27461 -18.48231,7.08186 -25.856482,13.58881 -7.419584,6.54703 -13.24454,14.71222 -18.307148,23.21421 -5.452105,9.1561 -10.104476,18.80553 -13.588813,28.87623 -6.122271,17.69505 -8.515932,37.33106 -2.642268,55.11018 4.204148,12.72563 12.610632,24.02394 23.591688,31.70723"/><path style="fill:none;stroke:#174871;stroke-width:.324839;stroke-linecap:round;stroke-linejoin:miter;stroke-miterlimit:4;stroke-dasharray:none;stroke-opacity:1" id="path237" d="M 87.996397,262.11616 C 75.240153,251.33287 65.424938,237.1041 59.875106,221.34972 54.847998,207.07921 53.319008,191.55777 55.72297,176.61989 c 3.407058,-21.17098 14.777669,-40.8431 30.952293,-54.92145 9.244457,-8.04635 20.047487,-14.34294 31.707227,-18.11842 8.87653,-2.87426 18.22572,-4.283044 27.55508,-4.152135"/><path style="fill:none;stroke:#174871;stroke-width:.324328px;stroke-linecap:butt;stroke-linejoin:miter;stroke-opacity:1" id="path241" d="m 145.93757,99.427885 c -6.42182,-2.562773 -13.15604,-4.341626 -20.00575,-5.284537 -12.2803,-1.690472 -24.91095,-0.667875 -36.803023,2.831 -10.830681,3.186592 -21.05066,8.416252 -30.008625,15.287412 -13.976562,10.72066 -24.882428,25.61277 -30.008625,42.46504 -4.448916,14.62572 -4.490489,30.47207 -0.754935,45.29604 4.591897,18.22224 14.980665,35.03735 29.631159,46.80589 8.813996,7.08016 19.099489,12.31995 30.008626,15.28743"/><path style="fill:#174871;fill-opacity:1;stroke:#174871;stroke-width:.324328px;stroke-linecap:butt;stroke-linejoin:miter;stroke-opacity:1" id="path245" d="m 58.365239,218.89618 c -0.194335,2.53975 4.670793,5.59473 3.397201,-1.1324 -0.168833,-0.89177 4.907071,15.75925 4.907071,15.75925 l -1.038034,5.56764 -10.663442,-18.59025 z"/><path style="fill:none;stroke:#174871;stroke-width:.324839;stroke-linecap:round;stroke-linejoin:miter;stroke-miterlimit:4;stroke-dasharray:none;stroke-opacity:1" id="path247" d="m 82.240023,225.21876 c 0.593679,4.55 1.737005,9.02802 3.397205,13.30571 2.361345,6.08427 5.790735,11.78269 10.285974,16.51419 4.070799,4.28476 9.073918,7.78786 14.721208,9.53104 8.97691,2.77096 19.00196,0.82782 27.08326,-3.9634 7.18792,-4.26156 12.98349,-10.62457 17.36348,-17.74095 3.30367,-5.36764 5.85286,-11.1989 7.54934,-17.26913"/><path style="fill:none;stroke:#174871;stroke-width:.324328px;stroke-linecap:round;stroke-linejoin:miter;stroke-opacity:1" id="path251" d="m 82.240023,225.21876 c -0.03116,2.649 0.126649,5.30021 0.471835,7.92681 0.811241,6.17292 2.677327,12.23525 5.75637,17.64658 2.583979,4.54127 6.027351,8.61438 10.200156,11.75887 4.172806,3.14449 9.081566,5.34491 14.240826,6.17081 6.81399,1.09079 13.8784,-0.23993 20.19449,-3.01973 10.25244,-4.51225 18.6729,-12.82203 23.87479,-22.74238 2.84043,-5.41688 4.76323,-11.31348 5.662,-17.3635"/><path style="fill:#e156d7;fill-opacity:1;fill-rule:nonzero;stroke:#e156d7;stroke-width:.490323;stroke-linecap:butt;stroke-linejoin:miter;stroke-miterlimit:100;stroke-dasharray:none;stroke-opacity:1;paint-order:normal" id="path1197" d="m 18.876412,173.35428 c -0.230933,-0.71775 -0.654371,-2.35051 -0.940971,-3.62837 -3.251644,-14.49804 -0.840979,-29.39035 7.371521,-45.53888 1.519739,-2.98832 4.539103,-8.25338 4.861763,-8.47777 0.07948,-0.0553 2.765554,-3.71062 6.141455,-8.12298 6.615843,-8.647001 8.239804,-10.341662 12.774116,-13.959729 8.330636,-6.647271 17.70462,-11.308787 26.788108,-13.887463 2.487816,-0.706257 6.09936,-1.535648 6.686912,-1.535648 0.192266,0 0.842822,-0.56676 0.04294,0.350395 -3.545653,4.065502 -6.764359,8.453467 -7.716093,12.011896 -0.25607,0.957407 0.328564,1.534814 -1.58966,2.497427 -16.290154,8.174782 -31.025404,21.452262 -40.553274,37.368982 -1.754073,2.93025 -5.406336,10.34771 -6.649647,13.5049 -3.619039,9.18997 -5.949822,19.23467 -6.642762,28.62752 l -0.154532,2.09471 z"/><path style="fill:#174871;fill-opacity:1;fill-rule:nonzero;stroke:#174871;stroke-width:.603098;stroke-linecap:round;stroke-linejoin:miter;stroke-miterlimit:100;stroke-dasharray:none;stroke-opacity:1;paint-order:normal" id="path1199" d="M 81.879775,259.76805 C 54.512457,249.87247 33.912852,226.0035 27.928498,196.47558 c -1.441343,-7.11184 -2.034379,-11.49371 -1.804379,-20.35481 0.235404,-9.06909 1.248533,-14.53978 3.529655,-21.76079 7.34111,-23.23874 25.789543,-43.3249 49.445862,-53.4798 12.456836,-5.34732 24.741284,-7.459409 38.068384,-6.989279 8.72013,0.307612 16.83434,1.730837 23.96177,4.202872 l 2.82922,0.972702 -2.82922,0.01382 c -1.21329,0.0059 -4.07968,0.420095 -6.38384,0.658035 -25.58242,2.64178 -50.2884,18.28913 -65.543276,41.51136 -3.296501,5.0182 -8.062208,14.63705 -9.982944,20.14899 -1.739627,4.99223 -3.228695,11.06993 -4.105693,16.75758 -0.926213,6.00682 -0.942699,18.70201 -0.0324,24.96017 0.57286,3.93838 2.514709,12.8194 3.222779,14.73933 0.157043,0.42583 0.86426,3.50515 2.216707,4.30845 6.997806,4.15645 4.94901,7.81497 5.023816,8.00465 0.649989,1.64812 -5.683966,-10.15599 -0.298471,-0.28668 0.09569,0.17535 0.873217,3.10898 0.873217,2.57331 0,-0.53565 1.237525,4.45706 1.456969,4.45706 0.219446,0 0.892719,-0.56314 0.892719,-0.38934 0,0.76695 3.463722,8.21006 5.967106,11.52038 1.511014,1.99808 2.028715,2.63305 6.526561,7.75109 2.118429,2.41053 6.444133,5.8684 6.166759,5.85236 -0.277368,-0.0161 -4.15279,-1.48227 -5.250014,-1.879 z"/><path style="fill:#174871;fill-opacity:1;fill-rule:nonzero;stroke:#174871;stroke-width:.741933;stroke-linecap:round;stroke-linejoin:miter;stroke-miterlimit:100;stroke-dasharray:none;stroke-opacity:1;paint-order:normal" id="path1209" d="m 110.00857,192.97181 c -6.67247,-1.45554 -11.732826,-7.24689 -11.725289,-13.41907 0.0016,-1.4264 0.228706,-3.0079 0.504362,-3.51445 l 0.422252,-0.94733 1.191235,1.56179 c 3.06083,4.01297 9.21759,8.13476 14.69084,9.50339 1.36948,0.34246 3.99669,0.65759 5.83823,0.70028 l 3.34826,0.0776 -0.75589,1.06576 c -1.75044,2.4681 -4.79044,4.33677 -8.24702,5.06942 -2.46885,0.52329 -2.41711,0.52424 -5.26698,-0.0975 z"/><path style="fill:#174871;fill-opacity:1;fill-rule:nonzero;stroke:#174871;stroke-width:.741933;stroke-linecap:round;stroke-linejoin:miter;stroke-miterlimit:100;stroke-dasharray:none;stroke-opacity:1;paint-order:normal" id="path1211" d="m 68.959658,239.32258 c -1.554183,-2.51883 -2.044041,-3.6911 -2.050524,-4.90706 -0.0047,-0.8787 -1.169588,-1.69398 -2.502465,-5.86342 -2.821307,-8.82547 -3.216111,-15.17553 -2.911308,-22.76333 0.607615,-15.12595 4.804347,-30.3409 13.001455,-47.13581 5.016007,-10.27721 10.382425,-18.90291 16.137228,-25.92359 5.670045,-6.91729 11.717126,-12.2765 18.177556,-16.12217 13.73659,-8.1769 29.37537,-10.19694 43.48991,-5.61751 10.23631,3.32114 20.19935,11.39197 26.81339,21.72089 3.48131,5.43665 6.73885,13.72572 8.29502,21.10731 1.85436,8.79611 1.43895,21.90458 -1.02051,32.20224 -0.98613,4.12886 -3.77183,12.80996 -4.02832,12.55347 -0.0756,-0.0756 0.1514,-2.63575 0.50461,-5.68908 0.894,-7.72812 0.60732,-22.39357 -0.56495,-28.90048 -2.76378,-15.34103 -10.586,-27.84389 -22.29824,-35.64103 -8.43124,-5.61291 -16.26938,-8.13574 -26.45354,-8.51449 -20.54988,-0.76423 -37.688199,9.28453 -50.484075,29.60048 -3.165775,5.02628 -8.936794,16.93815 -11.308116,23.34091 -8.677325,23.42945 -9.347241,47.47258 -1.845101,66.22036 0.743774,1.85869 5.384159,10.42114 5.312015,10.49328 -0.07214,0.0722 -5.140929,-8.34077 -6.264035,-10.16097 z"/><path style="fill:#174871;fill-opacity:1;fill-rule:nonzero;stroke:#174871;stroke-width:.612902;stroke-linecap:round;stroke-linejoin:miter;stroke-miterlimit:100;stroke-dasharray:none;stroke-opacity:1;paint-order:normal" id="path1221" d="m 175.26563,177.25854 c -1.02389,-3.60078 -4.51387,-10.45144 -6.98911,-13.71927 -9.01769,-11.90527 -24.32763,-19.69247 -41.11139,-20.91079 -7.60483,-0.55203 -17.02283,1.17398 -23.72216,4.34748 -4.512886,2.13777 -6.830692,3.68094 -9.945213,6.62137 -1.909558,1.80283 -2.663364,3.12731 -2.431753,2.31128 1.536248,-5.41263 4.367252,-10.22553 8.527449,-14.1155 13.549157,-12.66907 34.287887,-14.7918 53.496767,-5.41726 10.11899,4.93839 17.63355,11.98266 21.60931,19.91609 2.21119,4.41233 3.0747,8.08723 3.09559,13.9198 0.0172,4.81705 -0.93005,8.82307 -1.48775,10.83323 0,0 -0.62055,-2.30517 -1.04174,-3.78643 z"/><path style="fill:#174871;fill-opacity:1;fill-rule:nonzero;stroke:#174871;stroke-width:.741933;stroke-linecap:round;stroke-linejoin:miter;stroke-miterlimit:100;stroke-dasharray:none;stroke-opacity:1;paint-order:normal" id="path1223" d="m 125.96817,216.46023 c 0,-0.10922 0.60762,-1.05183 1.35026,-2.0947 8.35832,-11.73723 8.11267,-27.19493 -0.64621,-40.66203 -3.86782,-5.94693 -8.88999,-10.17308 -16.793,-14.13132 -4.04166,-2.02426 -4.52387,-2.36288 -3.36495,-2.36288 8.81576,0 18.37051,6.90061 24.33533,17.8057 3.88348,7.09987 6.1389,15.79937 5.73571,21.8938 -0.42478,6.42075 -2.75106,13.692 -5.27005,16.63486 -2.12187,2.47894 -5.34709,3.99143 -5.34709,2.91657 z"/><path style="fill:#174871;fill-opacity:1;fill-rule:nonzero;stroke:#174871;stroke-width:.741933;stroke-linecap:round;stroke-linejoin:miter;stroke-miterlimit:100;stroke-dasharray:none;stroke-opacity:1;paint-order:normal" id="path1225" d="m 142.52118,181.92151 c 1.18878,-3.91092 5.56059,-7.96887 10.64979,-9.24821 2.59148,-0.65144 8.77413,-0.33472 11.40597,1.36803 l 1.17807,0.60741 -2.87716,-0.0736 c -6.79428,-0.17374 -15.06642,2.90673 -19.58915,7.49946 -2.4515,2.48944 -1.02362,0.68942 -0.76752,-0.15311 z"/><path style="fill:#174871;fill-opacity:1;fill-rule:nonzero;stroke:#174871;stroke-width:.741933;stroke-linecap:round;stroke-linejoin:miter;stroke-miterlimit:100;stroke-dasharray:none;stroke-opacity:1;paint-order:normal" id="path1227" d="m 154.88219,203.20318 c -5.22748,-1.65757 -7.75464,-5.5279 -7.76533,-9.51955 -0.004,-1.42269 0.40888,-1.36252 2.53545,0.36958 5.06824,4.12815 11.85817,5.29081 18.72766,3.20679 0.67924,-0.20606 0.68353,-0.13666 0.0807,1.3061 -1.41666,3.39052 -4.03443,5.58367 -8.37887,5.5558 -1.53612,-0.01 -4.32185,-0.64039 -5.19962,-0.91872 z"/><path style="fill:#174871;fill-opacity:1;fill-rule:nonzero;stroke:#174871;stroke-width:.741933;stroke-linecap:round;stroke-linejoin:miter;stroke-miterlimit:100;stroke-dasharray:none;stroke-opacity:1;paint-order:normal" id="path1229" d="m 122.84344,244.00136 c -1.38944,-0.31536 -4.45263,-0.64027 -6.29798,-1.53348 -5.09334,-2.46532 -6.93588,-5.81121 -6.93588,-9.39261 l 0.22328,-1.41486 3.30633,1.37285 c 6.42198,2.66651 15.71002,4.74367 22.31524,4.76422 l 2.50393,0.007 -0.59709,1.15462 c -0.90068,1.74173 -3.00103,3.67225 -4.91772,4.52009 -2.27905,1.00814 -6.45616,1.235 -9.60011,0.52138 z"/><path style="fill:#174871;fill-opacity:1;fill-rule:nonzero;stroke:#174871;stroke-width:.741933;stroke-linecap:round;stroke-linejoin:miter;stroke-miterlimit:100;stroke-dasharray:none;stroke-opacity:1;paint-order:normal" id="path1231" d="m 114.58329,268.47599 c -7.71224,-0.67606 -16.159877,-5.35211 -21.532327,-11.91885 -5.109803,-6.24569 -8.751439,-14.49807 -9.59677,-21.74741 -0.211916,-1.81733 -0.122898,-1.67724 1.016119,1.59907 2.818299,8.10668 6.329529,13.77525 12.136726,19.59365 6.624322,6.63712 12.771962,9.59019 20.870542,10.02537 11.1146,0.59723 21.19715,-3.75272 30.09962,-12.98601 4.16219,-4.31686 7.05347,-8.31896 9.94523,-13.76614 2.44708,-4.60952 2.55225,-3.80857 0.16237,1.23653 -8.58173,18.1162 -26.06239,29.45747 -43.10151,27.96379 z"/><path style="fill:#174871;fill-opacity:1;fill-rule:nonzero;stroke:#174871;stroke-width:2.2876;stroke-linecap:round;stroke-linejoin:miter;stroke-miterlimit:100;stroke-dasharray:none;stroke-opacity:1;paint-order:normal" id="path1237" transform="scale(0.26458333)"/><path style="fill:#174871;fill-opacity:1;stroke:#174871;stroke-width:.324328px;stroke-linecap:butt;stroke-linejoin:miter;stroke-opacity:1" id="path1249" d="m 141.84202,182.95418 c -0.12246,0.51783 -0.24527,1.03534 -0.36839,1.55253 -0.12313,0.51718 1.13149,-1.23676 1.13149,-1.23676 z"/><path style="fill:#174871;fill-opacity:1;stroke:#174871;stroke-width:.324328px;stroke-linecap:butt;stroke-linejoin:miter;stroke-opacity:1" id="path1253" d="m 125.67206,216.34667 -0.98678,1.18413 1.52621,-0.43418 z"/><path style="fill:#174871;fill-opacity:1;stroke:#174871;stroke-width:.324328px;stroke-linecap:butt;stroke-linejoin:miter;stroke-opacity:1" id="path1255" d="m 104.34455,157.21907 1.65779,-0.13156 0.36839,1.05256 z"/><path style="fill:#174871;fill-opacity:1;stroke:#174871;stroke-width:.324328px;stroke-linecap:butt;stroke-linejoin:miter;stroke-opacity:1" id="path1265" d="m 147.3137,191.72311 -0.14885,0.68845 1.00477,0.093 z"/><path style="fill:none;stroke:#174871;stroke-width:.324328px;stroke-linecap:butt;stroke-linejoin:miter;stroke-opacity:1" id="path1267" d="m 168.89123,196.70183 0.35353,0.18608"/><path style="fill:#174871;fill-opacity:1;stroke:#174871;stroke-width:.324839;stroke-linecap:butt;stroke-linejoin:round;stroke-miterlimit:4;stroke-dasharray:none;stroke-opacity:1" id="path1269" d="m 182.02351,198.2163 -0.63153,3.5524 1.28939,-3.39451 z"/><path style="fill:#174871;fill-opacity:1;stroke:#174871;stroke-width:.324328px;stroke-linecap:butt;stroke-linejoin:miter;stroke-opacity:1" id="path1271" d="m 82.35731,227.55984 0.74427,6.77288 0.707061,-0.40935 z"/><path style="fill:#174871;fill-opacity:1;stroke:#174871;stroke-width:.324839;stroke-linecap:butt;stroke-linejoin:round;stroke-miterlimit:4;stroke-dasharray:none;stroke-opacity:1" id="path1273" d="m 158.86853,236.23062 3.20039,-7.96372 -2.38168,8.187 z"/><path style="fill:#a4cf66;fill-opacity:1;fill-rule:evenodd;stroke:#a4cf66;stroke-width:.149089;stroke-linecap:round;stroke-linejoin:round;stroke-miterlimit:4;stroke-dasharray:none;stroke-opacity:1;paint-order:normal" id="path1275" d="m 43.652374,90.98993 c 0,-0.209526 2.504169,-3.950097 3.389332,-4.985476 0.847965,-0.991866 1.823066,-2.684484 8.862666,-7.615418 4.324593,-3.02919 8.276188,-4.563997 8.652677,-4.761475 1.264594,-0.663306 4.431017,-2.171028 6.682304,-3.071433 7.042056,-2.816478 13.604072,-4.426461 20.489298,-5.166049 2.238685,-0.240472 7.150245,-0.42089 7.027766,-0.293558 -0.04094,0.04256 -1.531312,0.759037 -2.636557,1.495693 -3.348643,2.231904 -5.548822,4.00291 -7.945657,6.18255 l -0.925144,0.940727 -2.530526,0.08149 c -7.557327,0.24336 -14.817218,2.40939 -24.796312,7.43995 -4.998558,2.519825 -9.248679,4.983757 -13.817483,8.010451 -2.126044,1.408435 -2.452364,1.856465 -2.452364,1.742552 z"/><path style="fill:#40c5f0;fill-opacity:1;fill-rule:evenodd;stroke:#40c5f0;stroke-width:.105422;stroke-linecap:round;stroke-linejoin:round;stroke-miterlimit:4;stroke-dasharray:none;stroke-opacity:1;paint-order:normal" id="path1277" d="m 65.622876,68.5231 c -0.480168,-0.549989 -0.734114,-1.57611 -0.968382,-2.078893 l -0.07248,-0.598891 1.239198,-0.80624 c 1.442034,-0.938213 2.900549,-1.715874 4.289335,-2.343588 1.0612,-0.479646 2.053589,-1.262745 8.250795,-2.869401 7.395712,-1.917375 8.226128,-1.607146 12.698404,-2.155103 5.837552,-0.715238 11.024054,-0.721303 15.110354,-0.141064 2.1897,0.31093 6.35543,1.227332 6.1965,1.372106 -0.0483,0.04404 -0.9523,0.271627 -1.53121,0.460256 -2.50507,0.816246 -4.62135,1.667283 -5.92365,2.489762 l -0.61735,0.431999 -1.9571,-0.153119 c -1.31959,-0.103238 -2.33214,-0.245916 -5.03661,-0.245137 -3.669157,9.73e-4 -4.686875,0.0689 -8.052086,0.536837 -6.093477,0.847291 -14.363872,3.071925 -20.893326,5.620039 -1.07098,0.417949 -2.1765,0.912497 -2.297523,0.939809 -0.172252,0.03887 -0.123531,-0.10276 -0.434872,-0.459372 z"/><path style="fill:#aa81b9;fill-opacity:1;fill-rule:evenodd;stroke:#aa81b9;stroke-width:.0745445;stroke-linecap:round;stroke-linejoin:round;stroke-miterlimit:4;stroke-dasharray:none;stroke-opacity:1;paint-order:normal" id="path1279" d="m 117.84303,55.99748 c -7.22168,-1.494581 -15.12264,-2.145439 -22.529727,-1.855934 -0.982439,0.03839 -2.067692,0.09222 -2.411674,0.11959 l -0.847462,0.248179 0.252156,-0.929209 c 0,0 0.196536,-1.43918 0.402341,-2.023897 l 0.289168,-0.821565 1.649606,-0.292918 c 2.359606,-0.418993 5.186838,-1.022903 7.773672,-1.210624 2.71281,-0.196867 3.23175,-0.319571 8.93127,-0.1045 2.98825,0.112761 5.64717,0.37464 5.95418,0.400032 1.4238,0.117763 4.93235,0.545899 7.12483,0.972942 1.04461,0.203463 4.43015,1.109801 4.46038,1.138504 0.006,0.0061 -0.0825,0.329349 -0.0157,0.718231 0.0668,0.388882 0.23735,1.217183 0.37898,1.840665 0.14164,0.623484 0.40638,1.351912 0.40638,1.368574 0,0.01667 -1.21224,-0.158092 -2.51192,-0.138178 -2.6653,0.04083 -2.80618,0.066 -5.35372,0.578598 -0.90803,0.18271 -1.90164,0.513965 -1.93511,0.508706 -0.0335,-0.0053 -1.06425,-0.319862 -2.01771,-0.51719 z"/><path style="fill:#f28195;fill-opacity:1;fill-rule:evenodd;stroke:#f28195;stroke-width:.149089;stroke-linecap:round;stroke-linejoin:round;stroke-miterlimit:4;stroke-dasharray:none;stroke-opacity:1;paint-order:normal" id="path1281" d="m 83.071233,86.466804 c 9.849641,-14.636265 25.114847,-24.004786 43.542177,-26.905849 2.90444,-0.45725 5.92262,-1.032118 8.44752,-0.719732 l 1.45131,0.179561 11.98278,1.654141 c 5.51332,0.761074 7.94884,2.445173 8.11257,2.513353 0.16375,0.06818 1.19961,0.399916 2.14112,0.705028 1.94735,0.631071 8.65864,3.107642 8.83018,3.260293 0.0623,0.05539 -0.43688,1.134912 -0.88402,1.948679 -2.13812,3.891181 -3.0581,7.081315 -3.05976,11.650532 -3.1e-4,0.76412 0.0505,1.788004 -0.0159,1.760712 -0.0663,-0.02727 -1.47384,-0.897669 -2.87045,-1.612562 -8.17154,-4.182806 -16.20795,-6.46215 -25.57622,-7.254111 -2.29625,-0.194116 -8.05797,-0.196183 -10.6431,-0.0038 -9.58819,0.713493 -19.44777,3.151339 -28.728916,7.103419 -3.256019,1.386469 -8.078675,3.954187 -10.866416,5.619088 -1.168123,0.697626 -2.974379,1.689437 -3.016889,1.689437 -0.04251,0 0.443537,-0.58826 0.443537,-0.58826 z"/><path style="fill:#fecb0e;fill-opacity:1;fill-rule:evenodd;stroke:#fecb0e;stroke-width:.210844;stroke-linecap:round;stroke-linejoin:round;stroke-miterlimit:4;stroke-dasharray:none;stroke-opacity:1;paint-order:normal" id="path1283" d="m 196.46453,187.67018 c 0.91406,-4.9382 1.37417,-9.75038 1.37686,-15.68283 0.005,-11.24292 -1.92508,-21.42194 -6.04323,-31.86911 -6.00853,-15.2427 -16.69418,-29.69999 -28.89771,-39.20163 -9.80639,-7.635228 -21.75127,-12.911285 -35.78895,-15.617355 -5.75879,-1.110136 -13.33308,-1.907269 -18.31455,-1.927468 l -2.42088,-0.0098 0.83468,-0.47621 c 3.87053,-2.208268 11.78042,-4.329558 17.74675,-5.003453 3.14014,-0.35468 10.81961,0.02938 14.18727,0.433036 11.07219,1.327179 21.79511,5.940964 31.08755,12.251622 2.5662,1.742749 9.92512,7.967326 12.87541,10.917808 5.22706,5.22739 10.63529,13.00477 14.46151,20.64716 4.24648,8.48182 7.03602,17.54811 8.24875,27.15061 0.41589,3.29306 0.43739,12.4088 -0.0146,15.41336 -1.2627,8.3934 -4.38178,16.87025 -8.60022,23.03064 l -1.02655,1.49912 z"/><path style="fill:#fecb0e;fill-opacity:1;stroke:#fecb0e;stroke-width:.324328px;stroke-linecap:butt;stroke-linejoin:miter;stroke-opacity:1" id="path1285" d="m 107.18647,82.737262 -0.0921,0.565751 -1.2236,0.144729 z"/></g></svg>